<svg width="800" height="565" viewBox="0 0 800 565" fill="none" xmlns="http://www.w3.org/2000/svg">
<path d="M442.937 248.856C439.043 255.599 431.849 259.753 424.062 259.754L376.369 259.759C368.58 259.759 361.383 255.604 357.49 248.859L333.647 207.553C329.754 200.809 329.755 192.501 333.648 185.758L357.494 144.456C361.388 137.711 368.584 133.557 376.372 133.558L424.06 133.562C431.846 133.562 439.04 137.716 442.934 144.458L466.782 185.756C470.676 192.5 470.676 200.809 466.782 207.554L442.937 248.856Z" fill="#1A9EA7"/>
<path d="M412.782 215.808C412.782 215.808 412.524 215.636 412.224 215.379C411.924 215.165 411.324 215.165 410.896 215.379C410.896 215.379 409.867 215.979 408.881 216.365C407.81 216.837 406.481 217.179 406.481 217.179C406.01 217.308 405.624 217.779 405.538 218.251L404.552 225.666C404.51 226.137 404.038 226.523 403.567 226.523H397.395C396.923 226.523 396.495 226.137 396.409 225.666L395.294 218.251C395.209 217.779 394.78 217.265 394.352 217.137L389.894 215.294C389.465 215.079 388.823 215.122 388.437 215.422L382.522 220.051C382.136 220.351 381.579 220.308 381.236 219.965L376.864 215.594C376.522 215.251 376.479 214.694 376.779 214.308L381.236 208.264C381.536 207.879 381.536 207.236 381.322 206.807C381.322 206.807 380.722 205.778 380.336 204.793C379.908 203.764 379.522 202.435 379.522 202.435C379.393 201.964 379.265 201.621 379.265 201.621C379.265 201.621 378.879 201.578 378.407 201.492L370.95 200.464C370.478 200.378 370.092 199.949 370.092 199.478V193.306C370.092 192.835 370.478 192.406 370.95 192.32L378.365 191.163C378.836 191.077 379.35 190.649 379.479 190.22L381.365 185.72C381.579 185.291 381.536 184.648 381.236 184.262L376.65 178.433C376.35 178.048 376.393 177.49 376.736 177.148L381.108 172.776C381.45 172.433 382.008 172.39 382.393 172.69L388.437 177.148C388.823 177.448 389.465 177.448 389.894 177.233C389.894 177.233 390.966 176.633 391.908 176.247C393.023 175.776 394.394 175.39 394.394 175.39C394.866 175.262 395.209 175.176 395.209 175.133C395.209 175.133 395.252 174.747 395.337 174.276L396.237 166.861C396.28 166.39 396.709 166.004 397.18 166.004H403.352C403.824 166.004 404.252 166.39 404.338 166.861L405.324 174.233C405.367 174.705 405.795 175.219 406.267 175.347L410.896 177.233C411.324 177.448 411.967 177.405 412.353 177.105L418.268 172.561C418.654 172.261 419.211 172.304 419.554 172.647L423.925 177.019C424.268 177.362 424.311 177.919 424.011 178.305L419.554 184.305C419.254 184.691 419.211 185.334 419.468 185.72C419.468 185.72 420.068 186.791 420.497 187.82C420.968 188.891 421.311 190.22 421.311 190.22C421.439 190.692 421.954 191.077 422.382 191.163L429.797 192.149C430.269 192.192 430.655 192.663 430.655 193.135V199.349C430.655 199.821 430.269 200.249 429.797 200.335L422.382 201.364C421.911 201.45 421.397 201.835 421.268 202.307L419.382 206.893C419.168 207.321 419.211 207.964 419.511 208.35L424.054 214.265C424.354 214.651 424.311 215.208 423.968 215.551L423.797 215.722C423.454 216.065 422.94 216.622 422.597 216.922L422.34 217.222C421.997 217.565 421.482 218.08 421.182 218.38C420.882 218.68 420.325 219.237 420.025 219.537L419.639 219.923C419.296 220.265 418.782 220.351 418.482 220.137C418.182 219.923 417.968 219.751 417.968 219.751" stroke="#FAF7F1" stroke-width="2.23221" stroke-miterlimit="10" stroke-linecap="round" stroke-linejoin="round"/>
<path d="M408.171 195.762C408.171 200.084 404.662 203.593 400.339 203.593C396.017 203.593 392.508 200.084 392.508 195.762C392.508 191.44 396.017 187.931 400.339 187.931C404.662 187.931 408.171 191.44 408.171 195.762Z" fill="#FEB804" stroke="#FAF7F1" stroke-width="2.23221" stroke-miterlimit="10" stroke-linecap="round" stroke-linejoin="round"/>
<path d="M182.925 256.96L135.231 256.964C127.832 256.965 120.995 253.017 117.296 246.609L93.453 205.303C89.7551 198.897 89.7554 191.004 93.454 184.598L117.3 143.296C120.999 136.889 127.836 132.942 135.234 132.943L182.923 132.947C190.319 132.948 197.153 136.894 200.852 143.299L224.7 184.596C228.4 191.003 228.4 198.897 224.701 205.304L200.855 246.607C197.157 253.013 190.322 256.959 182.925 256.96Z" stroke="#FE5000" stroke-width="2.17964"/>
<path d="M546.861 490.513L499.167 490.518C491.768 490.518 484.931 486.571 481.232 480.163L457.389 438.857C453.691 432.45 453.691 424.558 457.39 418.152L481.236 376.85C484.935 370.442 491.772 366.496 499.17 366.496L546.858 366.5C554.255 366.501 561.089 370.447 564.788 376.852L588.636 418.149C592.336 424.556 592.336 432.45 588.637 438.858L564.791 480.16C561.093 486.566 554.258 490.512 546.861 490.513Z" stroke="#FE5000" stroke-width="2.17964"/>
<path d="M557.278 197.65L509.584 197.655C502.185 197.656 495.348 193.708 491.649 187.3L467.806 145.994C464.108 139.588 464.108 131.695 467.807 125.289L491.653 83.9869C495.352 77.5797 502.189 73.633 509.587 73.6336L557.275 73.6377C564.672 73.6383 571.506 77.5842 575.205 83.9895L599.053 125.287C602.753 131.694 602.753 139.588 599.054 145.995L575.208 187.297C571.51 193.703 564.675 197.65 557.278 197.65Z" stroke="#FE5000" stroke-width="2.17964"/>
<path d="M442.937 415.653C439.043 422.396 431.849 426.551 424.062 426.551L376.369 426.556C368.58 426.557 361.383 422.401 357.49 415.656L333.647 374.35C329.754 367.606 329.755 359.298 333.648 352.555L357.494 311.253C361.388 304.509 368.584 300.354 376.372 300.355L424.06 300.359C431.846 300.36 439.04 304.513 442.934 311.256L466.782 352.553C470.676 359.297 470.676 367.607 466.782 374.351L442.937 415.653Z" fill="#FEB804"/>
<path d="M427.995 345.055C427.995 340.713 424.503 337.165 419.536 334.756C414.568 332.347 407.888 330.931 400.532 330.931C393.176 330.931 386.496 332.347 381.528 334.756C376.561 337.165 373.069 340.713 373.069 345.055C373.077 355.879 373.069 371.766 373.069 382.719C373.069 387.061 376.561 390.585 381.528 392.993C386.496 395.402 393.176 396.843 400.532 396.843C407.888 396.843 414.568 395.402 419.536 392.993C424.504 390.585 427.996 387.061 427.996 382.719L427.995 345.055ZM400.532 334.07C407.477 334.07 413.759 335.441 418.163 337.576C422.567 339.711 424.857 342.463 424.857 345.055C424.857 347.647 422.567 350.374 418.163 352.509C413.759 354.645 407.477 356.04 400.532 356.04C393.587 356.04 387.306 354.645 382.902 352.509C378.498 350.374 376.207 347.647 376.207 345.055C376.207 342.463 378.498 339.711 382.902 337.576C387.306 335.441 393.587 334.07 400.532 334.07ZM376.207 351.725C377.624 353.109 379.44 354.317 381.528 355.329C386.496 357.738 393.176 359.179 400.532 359.179C407.888 359.179 414.568 357.738 419.536 355.329C421.624 354.317 423.44 353.109 424.857 351.725C424.857 353.163 424.857 356.171 424.857 357.61C424.857 360.202 422.567 362.929 418.163 365.064C413.759 367.199 407.477 368.595 400.532 368.595C393.587 368.595 387.306 367.199 382.902 365.064C378.498 362.929 376.207 360.202 376.207 357.61C376.207 356.171 376.207 353.163 376.207 351.725ZM376.207 364.279C377.624 365.664 379.44 366.871 381.528 367.884C386.496 370.293 393.176 371.734 400.532 371.734C407.888 371.734 414.568 370.293 419.536 367.884C421.624 366.871 423.44 365.664 424.857 364.279C424.857 365.718 424.857 368.726 424.857 370.164C424.857 372.757 422.567 375.483 418.163 377.619C413.759 379.754 407.477 381.15 400.532 381.15C393.587 381.15 387.306 379.754 382.902 377.619C378.498 375.483 376.207 372.757 376.207 370.164C376.207 368.726 376.207 365.718 376.207 364.279ZM376.207 376.834C377.624 378.219 379.44 379.426 381.528 380.439C386.496 382.847 393.176 384.288 400.532 384.288C407.888 384.288 414.568 382.847 419.536 380.439C421.624 379.426 423.44 378.219 424.857 376.834V382.719C424.857 385.311 422.567 388.038 418.163 390.173C413.759 392.309 407.477 393.705 400.532 393.705C393.587 393.705 387.306 392.309 382.902 390.173C378.498 388.038 376.207 385.311 376.207 382.719V376.834Z" fill="white"/>
<path d="M201.799 415.653C197.906 422.396 190.711 426.551 182.925 426.551L135.231 426.556C127.443 426.557 120.246 422.401 116.352 415.656L92.5091 374.35C88.6166 367.606 88.617 359.298 92.5101 352.555L116.356 311.253C120.25 304.509 127.446 300.354 135.234 300.355L182.923 300.359C190.708 300.36 197.903 304.513 201.796 311.256L225.644 352.553C229.538 359.297 229.539 367.607 225.645 374.351L201.799 415.653Z" fill="#FE5000"/>
<path d="M684.65 407.109C680.757 413.852 673.562 418.006 665.776 418.007L618.083 418.011C610.294 418.012 603.097 413.857 599.203 407.111L575.36 365.805C571.468 359.062 571.468 350.754 575.361 344.011L599.207 302.708C603.101 295.964 610.298 291.81 618.085 291.81L665.774 291.814C673.56 291.815 680.754 295.969 684.647 302.711L708.495 344.008C712.39 350.752 712.39 359.062 708.496 365.806L684.65 407.109Z" fill="#FE5000"/>
<path d="M608.668 367.463V363.33L617.341 355.737C617.991 355.148 618.545 354.61 619.002 354.123C619.458 353.627 619.806 353.132 620.046 352.637C620.286 352.134 620.406 351.588 620.406 351C620.406 350.342 620.263 349.781 619.977 349.316C619.69 348.844 619.296 348.48 618.793 348.225C618.289 347.969 617.713 347.842 617.063 347.842C616.405 347.842 615.828 347.977 615.333 348.248C614.837 348.511 614.45 348.894 614.172 349.397C613.901 349.9 613.765 350.512 613.765 351.232H608.32C608.32 349.614 608.684 348.217 609.411 347.04C610.139 345.864 611.161 344.958 612.477 344.324C613.8 343.681 615.337 343.36 617.086 343.36C618.889 343.36 620.457 343.662 621.788 344.266C623.119 344.869 624.149 345.713 624.876 346.797C625.612 347.873 625.979 349.123 625.979 350.547C625.979 351.452 625.797 352.35 625.434 353.24C625.07 354.131 624.416 355.114 623.471 356.189C622.535 357.265 621.204 358.554 619.478 360.056L616.633 362.68V362.83H626.27V367.463H608.668ZM627.736 363.516V359.034L637.477 343.685H641.459V349.769H639.149L633.448 358.802V358.987H647.554V363.516H627.736ZM639.218 367.463V362.145L639.334 360.183V343.685H644.71V367.463H639.218ZM660.639 342.571L652.977 371.039H648.135L655.798 342.571H660.639ZM662.738 367.463L672.328 348.469V348.318H661.113V343.685H678.273V348.352L668.648 367.463H662.738Z" fill="white"/>
<path d="M304.271 342.74L256.577 342.745C249.178 342.745 242.341 338.798 238.642 332.39L214.799 291.084C211.101 284.677 211.102 276.785 214.8 270.379L238.646 229.077C242.345 222.669 249.182 218.723 256.58 218.723L304.269 218.727C311.665 218.728 318.5 222.674 322.198 229.079L346.046 270.376C349.746 276.783 349.746 284.677 346.047 291.085L322.201 332.387C318.503 338.793 311.668 342.739 304.271 342.74Z" stroke="#FE5000" stroke-width="2.17964"/>
<path d="M564.906 332.451C561.013 339.194 553.818 343.348 546.032 343.349L498.338 343.353C490.55 343.354 483.352 339.199 479.459 332.453L455.616 291.147C451.723 284.404 451.724 276.096 455.617 269.353L479.463 228.051C483.357 221.306 490.553 217.152 498.341 217.152L546.029 217.156C553.815 217.157 561.009 221.311 564.903 228.053L588.751 269.35C592.645 276.094 592.645 284.404 588.752 291.148L564.906 332.451Z" fill="#FE7800"/>
<path d="M526.769 286.401C526.257 286.359 525.743 286.437 525.266 286.628C524.79 286.819 524.365 287.119 524.024 287.503C522.641 289.098 521.562 289.098 520.178 287.503C519.827 287.119 519.393 286.821 518.91 286.63C518.426 286.439 517.905 286.36 517.387 286.401C511.99 286.695 506.912 289.048 503.198 292.975C499.485 296.902 497.419 302.104 497.428 307.509V309.855C497.44 310.162 497.572 310.451 497.796 310.662C498.019 310.872 498.317 310.987 498.624 310.98H545.532C545.843 310.98 546.141 310.857 546.361 310.637C546.581 310.417 546.705 310.119 546.705 309.808V307.462C546.701 302.069 544.633 296.882 540.926 292.966C537.219 289.049 532.153 286.7 526.769 286.401V286.401ZM544.359 308.635H499.796V307.462C499.823 302.666 501.672 298.059 504.969 294.575C508.266 291.091 512.764 288.991 517.551 288.699C517.708 288.697 517.865 288.727 518.01 288.787C518.155 288.848 518.286 288.938 518.395 289.051C518.801 289.656 519.349 290.151 519.991 290.494C520.633 290.836 521.35 291.016 522.078 291.016C522.806 291.016 523.522 290.836 524.165 290.494C524.807 290.151 525.355 289.656 525.76 289.051C525.87 288.939 526.001 288.85 526.147 288.789C526.292 288.729 526.447 288.698 526.604 288.699C531.392 288.991 535.89 291.091 539.187 294.575C542.483 298.059 544.332 302.666 544.359 307.462V308.635ZM505.66 274.017H510.515C511.644 276.071 513.304 277.784 515.322 278.977C517.339 280.171 519.64 280.8 521.984 280.8C524.328 280.8 526.629 280.171 528.646 278.977C530.664 277.784 532.324 276.071 533.453 274.017H535.916C534.686 276.65 532.731 278.878 530.28 280.439C527.829 282.001 524.984 282.832 522.078 282.836C521.767 282.836 521.468 282.959 521.249 283.179C521.029 283.399 520.905 283.697 520.905 284.008C520.905 284.319 521.029 284.618 521.249 284.837C521.468 285.057 521.767 285.181 522.078 285.181C525.632 285.186 529.104 284.112 532.035 282.102C534.967 280.092 537.219 277.24 538.496 273.923C539.51 273.893 540.473 273.47 541.182 272.744C541.89 272.017 542.29 271.044 542.295 270.03V267.403C542.296 266.526 542 265.676 541.455 264.99C540.909 264.304 540.147 263.823 539.293 263.627C538.4 259.729 536.212 256.249 533.084 253.757C529.957 251.265 526.077 249.908 522.078 249.908C518.079 249.908 514.199 251.265 511.071 253.757C507.944 256.249 505.755 259.729 504.862 263.627C504.008 263.823 503.246 264.304 502.701 264.99C502.156 265.676 501.859 266.526 501.86 267.403V270.123C501.86 271.14 502.257 272.116 502.967 272.844C503.677 273.571 504.644 273.992 505.66 274.017V274.017ZM522.078 278.45C520.042 278.444 518.048 277.868 516.323 276.785C514.598 275.703 513.212 274.159 512.321 272.328C511.597 270.87 511.22 269.265 511.219 267.637C511.22 266.75 511.338 265.867 511.57 265.01C512.104 262.609 513.441 260.462 515.36 258.923C517.279 257.385 519.665 256.546 522.125 256.546C524.584 256.546 526.971 257.385 528.889 258.923C530.808 260.462 532.145 262.609 532.679 265.01C532.913 265.858 533.031 266.734 533.031 267.614C533.029 269.241 532.652 270.847 531.929 272.305C531.034 274.154 529.634 275.713 527.891 276.8C526.148 277.888 524.132 278.46 522.078 278.45V278.45ZM539.95 267.403V270.123C539.95 270.534 539.787 270.928 539.496 271.218C539.206 271.508 538.812 271.671 538.402 271.671H534.626C534.637 271.57 534.637 271.468 534.626 271.366C534.766 270.897 534.884 270.428 534.978 269.959C534.978 269.795 534.978 269.631 534.978 269.443C535.06 268.829 535.107 268.21 535.118 267.59C535.114 267.026 535.075 266.462 535.001 265.902V265.902H538.496C538.884 265.92 539.25 266.085 539.52 266.364C539.791 266.643 539.944 267.014 539.95 267.403V267.403ZM522.078 252.345C525.437 252.332 528.707 253.428 531.379 255.464C534.051 257.5 535.975 260.361 536.854 263.603H534.508C533.669 260.952 532.008 258.637 529.764 256.993C527.521 255.35 524.812 254.464 522.031 254.464C519.25 254.464 516.541 255.35 514.298 256.993C512.054 258.637 510.392 260.952 509.553 263.603H507.208C508.09 260.345 510.029 257.472 512.72 255.435C515.411 253.398 518.703 252.311 522.078 252.345V252.345ZM504.206 267.403C504.199 267.006 504.347 266.623 504.619 266.334C504.89 266.045 505.264 265.873 505.66 265.855H508.897C508.823 266.415 508.783 266.979 508.779 267.543C508.79 268.163 508.837 268.782 508.92 269.396C508.92 269.584 508.92 269.748 508.92 269.912C508.92 270.076 509.131 270.85 509.272 271.32C509.261 271.421 509.261 271.523 509.272 271.624H505.66C505.249 271.624 504.856 271.461 504.565 271.171C504.275 270.881 504.112 270.487 504.112 270.076L504.206 267.403Z" fill="white"/>
<path d="M187.078 381.829L168.542 363.416C169.893 360.716 170.629 357.769 170.629 354.578C170.629 343.284 161.545 334.2 150.374 334.2C139.204 334.2 130.12 343.284 130.12 354.455C130.12 365.626 139.204 374.71 150.374 374.71C153.566 374.71 156.512 373.973 159.213 372.623L177.749 391.159C178.976 392.386 183.273 394.719 187.078 391.159C188.429 390.054 190.761 385.635 187.078 381.829ZM150.374 372.255C140.554 372.255 132.575 364.275 132.575 354.455C132.575 344.635 140.554 336.655 150.374 336.655C160.195 336.655 168.174 344.635 168.174 354.455C168.174 364.275 160.195 372.255 150.374 372.255ZM185.36 389.44C183.764 391.036 181.063 391.036 179.467 389.44L161.422 371.395C163.755 369.922 165.719 367.835 167.315 365.503L185.36 383.548C187.569 386.126 186.096 388.704 185.36 389.44Z" fill="white"/>
<path d="M187.078 381.829L168.542 363.416C169.893 360.716 170.629 357.769 170.629 354.578C170.629 343.284 161.545 334.2 150.374 334.2C139.204 334.2 130.12 343.284 130.12 354.455C130.12 365.626 139.204 374.71 150.374 374.71C153.566 374.71 156.512 373.973 159.213 372.623L177.749 391.159C178.976 392.386 183.273 394.719 187.078 391.159C188.429 390.054 190.761 385.635 187.078 381.829ZM150.374 372.255C140.554 372.255 132.575 364.275 132.575 354.455C132.575 344.635 140.554 336.655 150.374 336.655C160.195 336.655 168.174 344.635 168.174 354.455C168.174 364.275 160.195 372.255 150.374 372.255ZM185.36 389.44C183.764 391.036 181.063 391.036 179.467 389.44L161.422 371.395C163.755 369.922 165.719 367.835 167.315 365.503L185.36 383.548C187.569 386.126 186.096 388.704 185.36 389.44Z" stroke="white"/>
<path d="M164.001 356.542C164.737 356.542 165.228 356.051 165.351 355.437C165.719 346.476 158.477 339.233 149.638 339.602C148.902 339.602 148.411 340.215 148.534 340.952C148.656 341.688 149.147 342.179 149.884 342.057C157.127 341.688 163.387 347.581 162.896 355.191C162.773 355.928 163.264 356.419 164.001 356.542Z" fill="white"/>
<path d="M164.001 356.542C164.737 356.542 165.228 356.051 165.351 355.437C165.719 346.476 158.477 339.233 149.638 339.602C148.902 339.602 148.411 340.215 148.534 340.952C148.656 341.688 149.147 342.179 149.884 342.057C157.127 341.688 163.387 347.581 162.896 355.191C162.773 355.928 163.264 356.419 164.001 356.542Z" stroke="white"/>
</svg>
